<svg id="Layer_1" data-name="Layer 1" xmlns="http://www.w3.org/2000/svg" xmlns:xlink="http://www.w3.org/1999/xlink" width="617" height="200" viewBox="0 0 617 200"><defs><style>.cls-1,.cls-4{fill:none;}.cls-2{fill:#fff;}.cls-3{clip-path:url(#clip-path);}.cls-4{stroke:#000;stroke-miterlimit:10;stroke-width:0.25px;}.cls-5{clip-path:url(#clip-path-2);}.cls-6{fill:#322f46;}.cls-7{fill:#3c7dff;}.cls-8{clip-path:url(#clip-path-3);}.cls-9{fill:#3063e0;}</style><clipPath id="clip-path"><rect class="cls-1" x="171.3" y="-3018" width="2263.59" height="1359.37"/></clipPath><clipPath id="clip-path-2"><path class="cls-2" d="M168.34-224a92.69,92.69,0,0,0-65.95-27.39,92.69,92.69,0,0,0-66,27.27,92.87,92.87,0,0,0-22.94,37.43l111.92.13c6.73,0,11.59,8.16,5.24,15.11a4.1,4.1,0,0,1-3,1.31l-28.91,0,61.77,61.94a76.49,76.49,0,0,1-58.22,26.77A76.68,76.68,0,0,1,35.83-120l63.22.07v10.31l18.35-18.31L99.07-146.29v9.66l-87.61-.1A92.69,92.69,0,0,0,36.27-92.19,92.69,92.69,0,0,0,102.21-64.8a92.69,92.69,0,0,0,66-27.27A92.69,92.69,0,0,0,195.6-158,92.69,92.69,0,0,0,168.34-224Zm-32,68c12.21-6,18.79-21.81,9.54-37.12A21,21,0,0,0,128-203.25l-87.5-.08a76.58,76.58,0,0,1,61.9-31.41A76.72,76.72,0,0,1,178.94-158,76.17,76.17,0,0,1,170-122.25Z"/></clipPath><clipPath id="clip-path-3"><path class="cls-1" d="M168.34,33A93.38,93.38,0,0,0,13.44,70.29l111.92.13c6.73,0,11.59,8.16,5.24,15.11a4.1,4.1,0,0,1-3,1.31l-28.91,0,61.77,61.94A76.57,76.57,0,0,1,35.83,137l63.22.07v10.31l18.35-18.31L99.07,110.71v9.66l-87.61-.1a93.33,93.33,0,0,0,156.77,44.65A93.3,93.3,0,0,0,168.34,33Zm-32,68c12.21-6,18.79-21.81,9.54-37.12A21,21,0,0,0,128,53.75l-87.5-.08A76.61,76.61,0,0,1,170,134.75Z"/></clipPath></defs><title>logoRepasse</title><g class="cls-3"><line class="cls-4" x1="-792.01" y1="33.18" x2="3020.79" y2="-3854.42"/><line class="cls-4" x1="-751.77" y1="75.69" x2="3061.03" y2="-3814.18"/><line class="cls-4" x1="-711.53" y1="118.2" x2="3101.27" y2="-3773.94"/><line class="cls-4" x1="-671.29" y1="160.7" x2="3141.51" y2="-3733.7"/><line class="cls-4" x1="-631.05" y1="203.21" x2="3181.75" y2="-3693.46"/><line class="cls-4" x1="-590.81" y1="245.71" x2="3221.99" y2="-3653.22"/><line class="cls-4" x1="-550.57" y1="288.22" x2="3262.23" y2="-3612.98"/><line class="cls-4" x1="-510.33" y1="330.73" x2="3302.47" y2="-3572.74"/><line class="cls-4" x1="-470.09" y1="373.23" x2="3342.71" y2="-3532.5"/><line class="cls-4" x1="-429.86" y1="415.74" x2="3382.95" y2="-3492.26"/><line class="cls-4" x1="-389.62" y1="458.25" x2="3423.19" y2="-3452.02"/><line class="cls-4" x1="-349.38" y1="500.75" x2="3463.42" y2="-3411.78"/><line class="cls-4" x1="-309.14" y1="543.26" x2="3503.66" y2="-3371.54"/><line class="cls-4" x1="-268.9" y1="585.76" x2="3543.9" y2="-3331.3"/><line class="cls-4" x1="-228.66" y1="628.27" x2="3584.14" y2="-3291.06"/><line class="cls-4" x1="-188.42" y1="670.78" x2="3624.38" y2="-3250.82"/><line class="cls-4" x1="-148.18" y1="713.28" x2="3664.62" y2="-3210.58"/><line class="cls-4" x1="-107.94" y1="755.79" x2="3704.86" y2="-3170.34"/><line class="cls-4" x1="-67.7" y1="798.3" x2="3745.1" y2="-3130.1"/><line class="cls-4" x1="-27.46" y1="840.8" x2="3785.34" y2="-3089.86"/><line class="cls-4" x1="12.78" y1="883.31" x2="3825.58" y2="-3049.63"/><line class="cls-4" x1="53.02" y1="925.82" x2="3865.82" y2="-3009.39"/><line class="cls-4" x1="93.26" y1="968.32" x2="3906.06" y2="-2969.15"/><line class="cls-4" x1="133.5" y1="1010.83" x2="3946.3" y2="-2928.91"/><line class="cls-4" x1="173.74" y1="1053.33" x2="3986.54" y2="-2888.67"/><line class="cls-4" x1="213.98" y1="1095.84" x2="4026.78" y2="-2848.43"/><line class="cls-4" x1="254.22" y1="1138.35" x2="4067.02" y2="-2808.19"/><line class="cls-4" x1="294.46" y1="1180.85" x2="4107.26" y2="-2767.95"/><line class="cls-4" x1="334.7" y1="1223.36" x2="4147.5" y2="-2727.71"/><line class="cls-4" x1="374.94" y1="1265.87" x2="4187.74" y2="-2687.47"/><line class="cls-4" x1="415.18" y1="1308.37" x2="4227.98" y2="-2647.23"/><line class="cls-4" x1="455.42" y1="1350.88" x2="4268.22" y2="-2606.99"/><line class="cls-4" x1="495.66" y1="1393.38" x2="4308.46" y2="-2566.75"/><line class="cls-4" x1="535.9" y1="1435.89" x2="4348.7" y2="-2526.51"/><line class="cls-4" x1="576.14" y1="1478.4" x2="4388.94" y2="-2486.27"/><line class="cls-4" x1="616.38" y1="1520.9" x2="4429.18" y2="-2446.03"/></g><path class="cls-2" d="M168.34-224a92.69,92.69,0,0,0-65.95-27.39,92.69,92.69,0,0,0-66,27.27,92.87,92.87,0,0,0-22.94,37.43l111.92.13c6.73,0,11.59,8.16,5.24,15.11a4.1,4.1,0,0,1-3,1.31l-28.91,0,61.77,61.94a76.49,76.49,0,0,1-58.22,26.77A76.68,76.68,0,0,1,35.83-120l63.22.07v10.31l18.35-18.31L99.07-146.29v9.66l-87.61-.1A92.69,92.69,0,0,0,36.27-92.19,92.69,92.69,0,0,0,102.21-64.8a92.69,92.69,0,0,0,66-27.27A92.69,92.69,0,0,0,195.6-158,92.69,92.69,0,0,0,168.34-224Zm-32,68c12.21-6,18.79-21.81,9.54-37.12A21,21,0,0,0,128-203.25l-87.5-.08a76.58,76.58,0,0,1,61.9-31.41A76.72,76.72,0,0,1,178.94-158,76.17,76.17,0,0,1,170-122.25Z"/><g class="cls-5"><rect class="cls-2" x="-205.67" y="-208.5" width="376.17" height="376.17" rx="23.51" ry="23.51" transform="translate(-19.61 6.45) rotate(45.05)"/></g><path class="cls-6" d="M334.25,62.42c0-8.68-2.39-15.22-7.12-19.46s-11.31-6.36-19.62-6.37-15.05,2.22-19.89,6.62-7.3,11.39-7.3,20.74c0,8.57,2.34,15.26,7,19.87,5.28,5.26,13.65,7.94,24.89,7.95a58.6,58.6,0,0,0,20.63-3.35l.39-.15L330,76.68l-.56.24c-4.23,1.84-10,2.77-17.23,2.76-5.59,0-9.64-1.23-12.06-3.64a10.52,10.52,0,0,1-2.82-7.46l36.11,0,.08-.36a28.12,28.12,0,0,0,.74-5.84ZM300.15,50.57a10.7,10.7,0,0,1,7.56-2.63c3.16,0,5.54.92,7.09,2.73s2.31,4.76,2.36,8.88l-18.48,0-1.36-.8C297.37,55,298.32,52.27,300.15,50.57Z"/><path class="cls-6" d="M362,37a63.87,63.87,0,0,0-21.77,3.55l-.3.11-.27,69.3,16,0,.24-19.5a32.29,32.29,0,0,0,9.87,1.39c8.23,0,14.9-2.26,19.83-6.73s7.46-11.32,7.46-20.32c0-8.68-2.34-15.42-7-20C381,39.59,372.88,37,362,37ZM356,50a18.36,18.36,0,0,1,6.63-1.1,14.9,14.9,0,0,1,10.12,3.47c2.61,2.28,3.93,6.23,3.92,11.74s-1.37,9.58-4.08,12a14.54,14.54,0,0,1-10.07,3.68A16.33,16.33,0,0,1,356,78.59Z"/><path class="cls-6" d="M422,36.69a77.33,77.33,0,0,0-21.64,3.44l-.39.12,2.06,11.91.59-.2a60.15,60.15,0,0,1,18.94-3.3c3.72,0,6.43.82,8,2.44a7.42,7.42,0,0,1,1.93,5.47v2.56H421.19c-8.34,0-14.49,1.28-18.27,3.82s-5.79,6.85-5.79,12.69,2.29,10.14,6.82,12.6,10.73,3.62,18.78,3.63a82.13,82.13,0,0,0,24.46-3.55l.32-.1V56.68c0-5.8-1.67-10.4-5-13.69C438.38,38.82,431.47,36.7,422,36.69Zm9.53,43.84a30.06,30.06,0,0,1-8,1,13.32,13.32,0,0,1-7.42-1.79,5.46,5.46,0,0,1-2.56-4.86c0-4.53,3.54-6.73,10.81-6.72h7.16Z"/><path class="cls-6" d="M489.71,60.15a72.76,72.76,0,0,0-8.46-2,35.21,35.21,0,0,1-7.09-1.91c-1.76-.71-2.61-1.69-2.61-3,0-2.95,3-4.44,8.93-4.43a34.1,34.1,0,0,1,15,3.51l.59.29,2.06-12-.42-.17a48.24,48.24,0,0,0-18.57-3.61c-15.68,0-23.64,5.65-23.64,16.83A13.83,13.83,0,0,0,458.6,63a15.62,15.62,0,0,0,7.47,4.88,85.42,85.42,0,0,0,8.45,2.06,37.77,37.77,0,0,1,7,2c1.76.71,2.62,1.72,2.62,3.09,0,3.08-3.57,4.64-10.6,4.64a37.37,37.37,0,0,1-16.35-3.3l-.58-.28-2.18,11.89.43.17a56.41,56.41,0,0,0,20.75,3.6c16.3,0,24.57-5.72,24.58-17a14.36,14.36,0,0,0-3.11-9.59A15.48,15.48,0,0,0,489.71,60.15Z"/><path class="cls-6" d="M530.21,48.88a34.1,34.1,0,0,1,15,3.51l.59.29,2.06-12-.42-.17a48.23,48.23,0,0,0-18.57-3.61c-15.68,0-23.63,5.65-23.64,16.83a13.83,13.83,0,0,0,3.11,9.34,15.62,15.62,0,0,0,7.47,4.88A85.44,85.44,0,0,0,524.27,70a37.75,37.75,0,0,1,7,2c1.76.71,2.62,1.72,2.62,3.09,0,3.08-3.57,4.64-10.6,4.64A37.38,37.38,0,0,1,507,76.38l-.58-.28L504.21,88l.43.17a56.41,56.41,0,0,0,20.75,3.6c16.31,0,24.57-5.72,24.58-17a14.36,14.36,0,0,0-3.1-9.59,15.49,15.49,0,0,0-7.42-4.93,72.82,72.82,0,0,0-8.46-2,35.19,35.19,0,0,1-7.09-1.91c-1.76-.71-2.62-1.69-2.61-3C521.29,50.36,524.29,48.87,530.21,48.88Z"/><path class="cls-6" d="M600.88,43.21c-4.71-4.22-11.31-6.36-19.62-6.37s-15.05,2.22-19.89,6.62-7.3,11.39-7.3,20.74c0,8.57,2.34,15.26,7,19.87,5.28,5.26,13.65,7.94,24.89,7.95a58.6,58.6,0,0,0,20.63-3.35l.39-.15-3.21-11.59-.56.24c-4.23,1.84-10,2.77-17.23,2.76-5.59,0-9.64-1.23-12.06-3.64a10.52,10.52,0,0,1-2.82-7.46l36.11,0,.08-.36a28.19,28.19,0,0,0,.74-5.84h0C608,54,605.61,47.45,600.88,43.21Zm-27,7.62a10.7,10.7,0,0,1,7.56-2.63c3.16,0,5.54.92,7.09,2.73s2.31,4.76,2.36,8.88l-18.48,0-1.36-.8C571.12,55.27,572.07,52.52,573.89,50.83Z"/><path class="cls-6" d="M361.9,121.43A63.87,63.87,0,0,0,340.13,125l-.3.11-.27,69.3,16,0,.24-19.5a32.29,32.29,0,0,0,9.87,1.39c8.23,0,14.9-2.26,19.83-6.73S393,158.25,393,149.25c0-8.68-2.34-15.42-7-20C380.88,124.05,372.76,121.44,361.9,121.43Zm-6,13.08a18.35,18.35,0,0,1,6.63-1.1,14.9,14.9,0,0,1,10.12,3.47c2.61,2.28,3.93,6.23,3.92,11.74s-1.38,9.58-4.08,12a14.54,14.54,0,0,1-10.07,3.68,16.32,16.32,0,0,1-6.54-1.27Z"/><path class="cls-6" d="M453.66,176.87a63.87,63.87,0,0,0,21.77-3.55l.3-.11.27-69.3-16,0-.24,19.5a32.29,32.29,0,0,0-9.87-1.39c-8.23,0-14.9,2.26-19.83,6.73s-7.46,11.32-7.46,20.32c0,8.68,2.34,15.42,7,20C434.67,174.24,442.8,176.86,453.66,176.87Zm6-13.08a18.35,18.35,0,0,1-6.63,1.1,14.9,14.9,0,0,1-10.12-3.47c-2.61-2.28-3.93-6.23-3.92-11.74s1.38-9.58,4.08-12A14.54,14.54,0,0,1,453.15,134a16.32,16.32,0,0,1,6.54,1.27Z"/><path class="cls-6" d="M305.86,121.4a77.29,77.29,0,0,0-21.64,3.44l-.39.12,2.06,11.91.59-.2a60.18,60.18,0,0,1,18.94-3.3c3.72,0,6.43.82,8,2.44a7.41,7.41,0,0,1,1.93,5.47v2.56H305c-8.34,0-14.49,1.28-18.27,3.82S281,154.5,281,160.35s2.29,10.14,6.82,12.6,10.73,3.62,18.78,3.63A82.13,82.13,0,0,0,331,173l.32-.1V141.39c0-5.8-1.67-10.4-5-13.69C322.2,123.53,315.3,121.41,305.86,121.4Zm9.54,31.5v12.34a30,30,0,0,1-8,1,13.32,13.32,0,0,1-7.42-1.79,5.46,5.46,0,0,1-2.56-4.86c0-4.53,3.54-6.73,10.81-6.72Z"/><polygon class="cls-6" points="320.69 101.48 304.92 101.47 298.54 116.67 312.07 116.69 320.69 101.48"/><path class="cls-6" d="M407.17,116.65a8.73,8.73,0,0,0,6.46-2.69,9.12,9.12,0,1,0-6.46,2.69Z"/><rect class="cls-6" x="399.29" y="122.95" width="16.05" height="52.26"/><path class="cls-6" d="M538.11,136.71a22,22,0,0,0-6.7-8.73,29.34,29.34,0,0,0-9.36-4.74A38.66,38.66,0,0,0,511,121.68a37.68,37.68,0,0,0-14.43,2.63,23.66,23.66,0,0,0-10.69,9c-2.82,4.23-4.26,9.55-4.26,15.81,0,9.24,2.84,16.25,8.45,20.84s12.64,6.87,21,6.88,15.42-2.29,21-6.81,8.47-11.53,8.47-20.75A30.72,30.72,0,0,0,538.11,136.71Zm-17.85,24.45a13.05,13.05,0,0,1-9.28,3.62,12.8,12.8,0,0,1-9.16-3.61c-2.48-2.38-3.74-6.39-3.73-11.92s1.29-9.48,3.83-11.92a13.36,13.36,0,0,1,18.39,0c2.51,2.42,3.79,6.41,3.79,11.87S522.79,158.75,520.26,161.16Z"/><polygon class="cls-6" points="236.47 175.05 236.47 174.98 236.44 175.05 236.47 175.05"/><path class="cls-6" d="M276,129.13c0-6.59-2-11.9-6-15.79s-10.26-5.86-18.65-5.87l-30.62,0,0,67.6,16.33,0,0-3.3.53-51.33v-.78h10.91c4.2,0,7.28.95,9.14,2.81a8.9,8.9,0,0,1,2.3,6.56c0,6.29-3.78,9.34-11.54,9.33l-8.43,0L247,149.92h0l15.43,25.15,17.46,0-17.44-26.72C271.43,145.58,276,139.11,276,129.13Z"/><polygon class="cls-6" points="237.15 90.25 237.15 90.18 237.13 90.25 237.15 90.25"/><path class="cls-6" d="M276.09,44.32c0-6.59-2-11.9-6-15.79s-10.26-5.86-18.65-5.87l-30.62,0,0,67.6,16.33,0,0-3.3.53-51.33v-.78h10.91c4.2,0,7.28.95,9.14,2.81a8.9,8.9,0,0,1,2.3,6.56c0,6.29-3.78,9.34-11.54,9.33h-1.15v0h-7.28l7.08,11.55h0l15.43,25.15,17.46,0L262.59,63.57C271.55,60.78,276.09,54.3,276.09,44.32Z"/><path class="cls-7" d="M168.34,33A93.38,93.38,0,0,0,13.44,70.29l111.92.13c6.73,0,11.59,8.16,5.24,15.11a4.1,4.1,0,0,1-3,1.31l-28.91,0,61.77,61.94A76.57,76.57,0,0,1,35.83,137l63.22.07v10.31l18.35-18.31L99.07,110.71v9.66l-87.61-.1a93.33,93.33,0,0,0,156.77,44.65A93.3,93.3,0,0,0,168.34,33Zm-32,68c12.21-6,18.79-21.81,9.54-37.12A21,21,0,0,0,128,53.75l-87.5-.08A76.61,76.61,0,0,1,170,134.75Z"/><g class="cls-8"><rect class="cls-9" x="-205.67" y="48.5" width="376.17" height="376.17" rx="23.51" ry="23.51" transform="translate(162.29 81.9) rotate(45.05)"/></g><path class="cls-9" d="M20,103.62l72.1.07L75.42,87,9.75,87A94.8,94.8,0,0,0,9,98.81q0,2.4.12,4.79H20Z"/></svg>